<?xml version="1.0" standalone="no"?>
<!DOCTYPE svg PUBLIC "-//W3C//DTD SVG 20010904//EN"
 "http://www.w3.org/TR/2001/REC-SVG-20010904/DTD/svg10.dtd">
<svg version="1.0" xmlns="http://www.w3.org/2000/svg"
 width="1638.000000pt" height="1638.000000pt" viewBox="0 0 1638.000000 1638.000000"
 preserveAspectRatio="xMidYMid meet">
<metadata>
Created by potrace 1.14, written by Peter Selinger 2001-2017
</metadata>
<g transform="translate(0.000000,1638.000000) scale(0.100000,-0.100000)"
fill="#000000" stroke="none">
<path d="M636 16365 c-213 -47 -391 -168 -507 -345 -53 -82 -80 -145 -105
-245 l-23 -90 2 -7515 c2 -7216 3 -7517 20 -7575 59 -193 177 -355 337 -460
102 -67 219 -110 335 -122 78 -9 14911 -9 14990 -1 146 16 319 97 435 205 138
127 223 294 247 483 5 36 8 3422 8 7525 -1 6098 -3 7470 -14 7515 -53 222
-156 377 -337 506 -46 33 -172 90 -244 110 -63 18 -292 19 -7575 20 -6060 1
-7521 -1 -7569 -11z"/>
</g>
</svg>
